# xmcd
#
# Track frame offsets:
#	150
#	28305
#	49100
#	76580
#	105825
#	124365
#	153335
#	181180
#	194655
#	220592
#	239812
#	255575
#	295675
#
# Disc length: 4326
#
# Revision: 1
# Processed by: cddbd v1.5.1PL0 Copyright (c) Steve Scherf et al.
# Submitted via: dBpowerAMP V4.0
# Normalized: r0:TDELIM( - )
#
DISCID=b010e40d
DTITLE=Various Artist - Blue Note Rare Grooves
DYEAR=1900
DGENRE=Soul
TTITLE0=Bus Ride - Reuben Wilson
TTITLE1=Hunk O' Funk - Jack McDuff
TTITLE2=Hot Rod - Reuben Wilson
TTITLE3=The Bird Wave - Jimmy McRiff
TTITLE4=Bogaloo - Stanley Turrentine
TTITLE5=Heaven on Earth - Larry Young
TTITLE6=Black Rythm Happening - Eddie Gale
TTITLE7=String Bean - Johan Patton
TTITLE8=Groovin for Mr G - Richard Holmes
TTITLE9=Round Town - Elvin Jones
TTITLE10=Soul Special - Andrew Hill
TTITLE11=Blackjack - Donald Byrd
TTITLE12=serenade to a Savage - Candido
EXTD=
EXTT0=
EXTT1=
EXTT2=
EXTT3=
EXTT4=
EXTT5=
EXTT6=
EXTT7=
EXTT8=
EXTT9=
EXTT10=
EXTT11=
EXTT12=
PLAYORDER=
